HIERARCHY
ROOT RootJoint
{
    OFFSET   0.000000   0.000000   0.000000
    CHANNELS 6 Xposition Yposition Zposition Xrotation Yrotation Zrotation
    JOINT pelvis_lowerback
    {
        OFFSET   0.000000   0.093605   0.000000
        CHANNELS 3 Xrotation Yrotation Zrotation
        JOINT lowerback_torso
        {
            OFFSET   0.000000   0.100000   0.000000
            CHANNELS 3 Xrotation Yrotation Zrotation
            JOINT torso_head
            {
                OFFSET   0.000000   0.282350   0.000000
                CHANNELS 3 Xrotation Yrotation Zrotation
                End Site
                {
                    OFFSET   0.000000   0.192650   0.000000
                }
            }
            JOINT rTorso_Clavicle
            {
                OFFSET  -0.001000   0.157500   0.000000
                CHANNELS 3 Xrotation Yrotation Zrotation
                JOINT rShoulder
                {
                    OFFSET  -0.117647   0.000000   0.000000
                    CHANNELS 3 Xrotation Yrotation Zrotation
                    JOINT rElbow
                    {
                        OFFSET  -0.245000   0.000000   0.000000
                        CHANNELS 3 Xrotation Yrotation Zrotation
                        JOINT rWrist
                        {
                            OFFSET  -0.240000   0.000000   0.000000
                            CHANNELS 3 Xrotation Yrotation Zrotation
                            End Site
                            {
                                OFFSET  -0.116353  -0.002500   0.000000
                            }
                        }
                    }
                }
            }
            JOINT lTorso_Clavicle
            {
                OFFSET   0.001000   0.157500   0.000000
                CHANNELS 3 Xrotation Yrotation Zrotation
                JOINT lShoulder
                {
                    OFFSET   0.117647   0.000000   0.000000
                    CHANNELS 3 Xrotation Yrotation Zrotation
                    JOINT lElbow
                    {
                        OFFSET   0.245000   0.000000   0.000000
                        CHANNELS 3 Xrotation Yrotation Zrotation
                        JOINT lWrist
                        {
                            OFFSET   0.240000   0.000000   0.000000
                            CHANNELS 3 Xrotation Yrotation Zrotation
                            End Site
                            {
                                OFFSET   0.116353  -0.002500   0.000000
                            }
                        }
                    }
                }
            }
        }
    }
    JOINT rHip
    {
        OFFSET  -0.100000  -0.051395   0.000000
        CHANNELS 3 Xrotation Yrotation Zrotation
        JOINT rKnee
        {
            OFFSET   0.000000  -0.410000   0.000000
            CHANNELS 3 Xrotation Yrotation Zrotation
            JOINT rAnkle
            {
                OFFSET   0.000000  -0.390000   0.000000
                CHANNELS 3 Xrotation Yrotation Zrotation
                JOINT rToeJoint
                {
                    OFFSET   0.000000  -0.050000   0.130000
                    CHANNELS 3 Xrotation Yrotation Zrotation
                    End Site
                    {
                        OFFSET  -0.010000   0.002000   0.060000
                    }
                }
            }
        }
    }
    JOINT lHip
    {
        OFFSET   0.100000  -0.051395   0.000000
        CHANNELS 3 Xrotation Yrotation Zrotation
        JOINT lKnee
        {
            OFFSET   0.000000  -0.410000   0.000000
            CHANNELS 3 Xrotation Yrotation Zrotation
            JOINT lAnkle
            {
                OFFSET   0.000000  -0.390000   0.000000
                CHANNELS 3 Xrotation Yrotation Zrotation
                JOINT lToeJoint
                {
                    OFFSET   0.000000  -0.050000   0.130000
                    CHANNELS 3 Xrotation Yrotation Zrotation
                    End Site
                    {
                        OFFSET   0.010000   0.002000   0.060000
                    }
                }
            }
        }
    }
}
MOTION
Frames: 17
Frame Time:   0.008333
 -2.260461   0.925645   5.256970  -2.514896   7.181429  -2.551487  13.780097  -3.783431   3.587123   3.813968  -3.489023   5.266820  -2.723959   0.378898   0.711819   5.842438  -2.048560  10.840653   7.363710   0.691773  39.294629   0.006879  38.663747  -0.001760   1.210391   2.292820 -12.828225   3.462304  -6.541909  -6.879550   4.172240 -13.045799 -44.254281  -0.013739 -55.408905   0.007983   2.203545  -7.236553   8.858308 -19.455864  -0.865387   7.262387  27.839433   0.000815   0.000408  19.593512  -5.631744  -1.122324 -37.388388  -0.045694  -0.017717   0.349288  -0.377184   4.259954  54.377842  -0.003424   0.004001   1.640958   3.406031   0.115148 -19.079179  -0.020890   0.015371
 -2.258874   0.931526   5.269249  -2.732434   6.868295  -2.033834  13.531945  -3.320509   3.114306   3.871725  -3.474873   5.180813  -2.592079   0.352489   0.970586   5.752789  -1.876067  10.799852   7.093572   1.156233  39.454005   0.007183  39.525513  -0.003594   1.092232   1.892094 -12.804434   3.849143  -6.227725  -7.009979   5.066714 -12.595363 -44.356510  -0.014396 -53.918838   0.010097   2.279435  -7.466714   8.938511 -18.204952  -0.489946   6.850728  27.062601   0.000942   0.001834  21.067671  -5.586746  -1.231376 -40.238373  -0.040510  -0.016699  -1.482108  -0.245423   3.853058  55.709144  -0.003735   0.003826   0.384112   3.888659   0.452895 -18.229879  -0.019885   0.015719
 -2.257247   0.937368   5.281023  -2.908755   6.496272  -1.480143  13.355309  -2.815850   2.614216   3.924758  -3.400736   5.052248  -2.475827   0.316642   1.214426   5.599078  -1.639098  10.746943   6.784254   1.661456  39.607421   0.007601  40.382955  -0.006056   1.033075   1.757737 -12.778112   4.269342  -5.906353  -7.119103   5.958261 -12.131282 -44.444955  -0.016208 -52.470898   0.010850   2.320157  -7.409178   8.926823 -16.916486  -0.078901   6.385884  26.122422   0.001042   0.003512  22.510585  -5.522474  -1.365231 -42.777071  -0.036016  -0.015558  -3.471156  -0.124982   3.396156  56.819341  -0.004417   0.002907  -0.807942   4.331581   0.780874 -17.513370  -0.018434   0.014893
 -2.255582   0.942925   5.292527  -3.101324   6.114968  -0.914131  13.240014  -2.277815   2.119194   4.005693  -3.265365   4.898771  -2.359509   0.281977   1.438851   5.417674  -1.375421  10.674770   6.464217   2.165990  39.740800   0.008018  41.204565  -0.008893   1.006916   1.764728 -12.766820   4.694744  -5.579774  -7.214315   6.818750 -11.676869 -44.533181  -0.017389 -51.103788   0.011930   2.342008  -7.231457   8.864875 -15.603839   0.330359   5.886777  25.142142   0.001008   0.004927  23.898001  -5.462275  -1.501801 -45.073029  -0.032107  -0.014376  -5.510737  -0.010198   2.951473  57.780784  -0.005132   0.002058  -1.927789   4.737912   1.096249 -16.865189  -0.016936   0.013799
 -2.253932   0.948548   5.303674  -3.320672   5.698655  -0.425479  13.211278  -1.694689   1.693027   4.119549  -3.065181   4.756939  -2.246505   0.251448   1.648581   5.208389  -1.081386  10.596649   6.134028   2.665661  39.848015   0.008603  41.981261  -0.011803   0.997860   1.835912 -12.783818   5.110056  -5.261725  -7.325894   7.636041 -11.240465 -44.628036  -0.018633 -49.815219   0.012640   2.351086  -6.985250   8.797819 -14.333007   0.715939   5.466932  24.266214   0.001033   0.005863  24.939642  -5.449483  -1.717247 -45.058437  -0.025627  -0.011559  -7.561909   0.088145   2.605244  58.607028  -0.005926   0.001158  -2.977323   5.111856   1.398720 -16.267667  -0.015560   0.012456
 -2.252293   0.954068   5.314679  -3.571326   5.255045   0.039241  13.221609  -1.091599   1.278329   4.263261  -2.821187   4.613648  -2.130091   0.224405   1.845645   4.994469  -0.782874  10.514965   5.810234   3.148897  39.945845   0.009097  42.715450  -0.014266   1.001836   1.953807 -12.803486   5.523411  -4.940185  -7.431771   8.419309 -10.818390 -44.726934  -0.019383 -48.605150   0.013338   2.353627  -6.707004   8.712583 -13.066407   1.046333   5.025131  23.447181   0.000927   0.006949  26.013547  -5.329899  -1.685082 -45.046747  -0.020476  -0.009313  -9.578543   0.176607   2.302953  59.329461  -0.006652   0.000315  -3.961468   5.456088   1.687917 -15.722170  -0.014268   0.011003
 -2.250656   0.959350   5.325667  -3.852693   4.823926   0.499432  13.249562  -0.494905   0.868059   4.422168  -2.558182   4.463832  -2.014127   0.199908   2.028531   4.789210  -0.496618  10.430900   5.502313   3.605421  40.036777   0.009365  43.405491  -0.016078   1.012918   2.095437 -12.822906   5.932696  -4.615846  -7.527744   9.169361 -10.409969 -44.826629  -0.019405 -47.469595   0.014245   2.352069  -6.409528   8.613258 -11.801573   1.353891   4.568508  22.683287   0.000761   0.007601  27.097885  -5.208347  -1.660281 -45.037397  -0.016359  -0.007503 -11.541677   0.255664   2.029353  59.975616  -0.007156  -0.000290  -4.883839   5.772928   1.963496 -15.225761  -0.013010   0.009671
 -2.248950   0.964628   5.335825  -3.770178   4.301751   1.028957  13.209868   0.066166   0.388929   4.357435  -2.343385   4.227264  -1.932157   0.058684   2.190045   4.686186  -0.183177  10.349924   5.048606   4.062182  40.101122   0.009842  44.584291  -0.019340   0.971774   1.940947 -12.616331   6.459266  -4.270039  -7.567309  10.076696  -9.912627 -44.841597  -0.020964 -46.455755   0.011207   2.445708  -6.265719   8.480398 -10.947365   1.602501   3.957279  21.853805   0.000593   0.009474  28.332440  -4.947554  -1.526678 -45.029912  -0.013078  -0.006055 -13.832159   0.357715   1.616618  59.852232  -0.005310   0.000043  -5.449788   6.044711   2.133767 -15.021931  -0.010773   0.007916
 -2.247187   0.969654   5.345617  -3.651265   3.760349   1.556759  13.237301   0.616395  -0.081776   4.299878  -2.109570   3.970315  -1.859121  -0.082848   2.335699   4.541511   0.146592  10.227692   4.583052   4.527741  40.145001   0.010126  45.728446  -0.022403   0.976503   2.008956 -12.450902   6.985362  -3.920030  -7.568212  10.955708  -9.420864 -44.849533  -0.022176 -45.497142   0.008145   2.537973  -6.092758   8.297186 -10.143287   1.826363   3.353007  20.974119   0.000564   0.011334  29.547053  -4.798421  -1.546088 -45.023928  -0.010447  -0.004884 -16.147588   0.463290   1.210326  59.504372  -0.002996   0.000916  -5.985914   6.294499   2.295069 -14.812466  -0.008937   0.006403
 -2.245353   0.974338   5.355242  -3.546638   3.213530   2.067806  13.318803   1.165870  -0.532222   4.279863  -1.853666   3.710656  -1.782505  -0.215826   2.470027   4.380853   0.475715  10.078081   4.127167   4.977196  40.166012   0.010470  46.809196  -0.025176   1.002516   2.166650 -12.338681   7.493529  -3.575158  -7.555856  11.791015  -8.946505 -44.857807  -0.022784 -44.595018   0.005664   2.622271  -5.886238   8.104022  -9.349569   2.027395   2.755043  20.127312   0.000463   0.012749  30.709836  -4.675081  -1.562011 -45.019141  -0.008345  -0.003941 -18.425331   0.570533   0.838125  59.091069  -0.000861   0.001895  -6.491136   6.525847   2.447787 -14.619677  -0.007407   0.005109
 -2.243453   0.978673   5.364810  -3.465484   2.672276   2.555071  13.437307   1.708384  -0.959718   4.293653  -1.584467   3.456430  -1.702910  -0.339389   2.595314   4.218389   0.793044   9.915935   3.690959   5.402055  40.172361   0.010906  47.822642  -0.027380   1.036627   2.352853 -12.264637   7.982182  -3.236871  -7.541704  12.582393  -8.491743 -44.870747  -0.022869 -43.747073   0.003790   2.699318  -5.656198   7.912134  -8.559919   2.209124   2.170320  19.337921   0.000291   0.013594  31.803091  -4.566302  -1.578129 -45.015312  -0.006666  -0.003179 -20.637451   0.677235   0.508009  58.662929   0.000910   0.002797  -6.965564   6.740553   2.592073 -14.444949  -0.006128   0.004024
 -2.241543   0.982705   5.374390  -3.404708   2.147703   3.001927  13.577251   2.236361  -1.358856   4.332132  -1.310410   3.217181  -1.622932  -0.454016   2.713203   4.061975   1.093769   9.755890   3.279330   5.800056  40.173222   0.011403  48.769465  -0.028873   1.072489   2.541005 -12.211746   8.450939  -2.906581  -7.531390  13.331138  -8.057369 -44.889963  -0.022570 -42.950261   0.002413   2.769976  -5.408270   7.723645  -7.767424   2.371513   1.597371  18.633119  -0.000027   0.013833  32.825898  -4.375759  -1.477269 -45.012248  -0.005328  -0.002565 -22.770500   0.778307   0.234616  58.237670   0.002280   0.003536  -7.410477   6.940039   2.728228 -14.287292  -0.005058   0.003137
 -2.239576   0.986416   5.384011  -3.361345   1.643127   3.430649  13.728780   2.742823  -1.742685   4.387064  -1.039890   2.985970  -1.544307  -0.560478   2.822749   3.916114   1.374811   9.601465   2.894474   6.170974  40.173647   0.011872  49.653510  -0.029649   1.107756   2.723109 -12.167988   8.899115  -2.586096  -7.523945  14.038391  -7.644713 -44.915917  -0.021936 -42.203181   0.001433   2.835881  -5.152849   7.535621  -6.986383   2.521576   1.050737  17.962709  -0.000246   0.013706  33.784123  -4.278090  -1.499601 -45.009798  -0.004256  -0.002068 -24.814319   0.880740  -0.015248  57.824620   0.003265   0.004122  -7.827430   7.125439   2.856455 -14.145760  -0.004152   0.002412
 -2.237562   0.989773   5.393298  -3.189564   1.112023   3.884615  13.924738   3.168968  -2.143317   4.304729  -0.735683   2.721136  -1.499119  -0.714084   2.823238   3.810902   1.634155   9.358606   2.536057   6.464687  40.152531   0.012625  51.108497  -0.033833   1.029058   2.602078 -11.902797   9.258196  -2.186214  -7.406343  14.791464  -7.172567 -44.945568  -0.019347 -41.695837   0.001247   2.893451  -4.901289   7.185092  -6.425385   2.571542   0.415609  17.474929  -0.000468   0.013466  34.600699  -3.928829  -1.456894 -45.007837  -0.003403  -0.001667 -26.769763   0.997369  -0.260710  56.653462   0.006940   0.007366  -7.473918   7.165994   2.879496 -14.205422  -0.003313   0.002090
 -2.235554   0.992788   5.402461  -2.991782   0.599591   4.289898  14.133074   3.568123  -2.503993   4.219037  -0.437674   2.468359  -1.455271  -0.860925   2.815805   3.681081   1.888126   9.073472   2.173777   6.758130  40.102563   0.012605  52.504138  -0.036772   0.993756   2.687368 -11.686249   9.593296  -1.795384  -7.243827  15.498025  -6.715143 -44.950283  -0.016776 -41.227946   0.001049   2.953556  -4.706347   6.890836  -5.918284   2.601835  -0.158029  17.006000  -0.000597   0.013105  35.307638  -3.661125  -1.501671 -45.006269  -0.002720  -0.001342 -28.656742   1.092840  -0.435472  55.349722   0.010229   0.010476  -7.142631   7.201604   2.899749 -14.194965  -0.002639   0.001664
 -2.233510   0.995508   5.411601  -2.792622   0.105079   4.657673  14.348966   3.948695  -2.836227   4.145064  -0.147627   2.233209  -1.410340  -0.998279   2.808590   3.540736   2.135465   8.774676   1.819746   7.038712  40.033048   0.012475  53.814449  -0.038622   0.975842   2.838285 -11.531525   9.903406  -1.424112  -7.065657  16.157768  -6.278779 -44.940314  -0.014427 -40.789871   0.000854   3.011752  -4.519595   6.650051  -5.429976   2.620784  -0.694317  16.573357  -0.000703   0.012562  35.948777  -3.426528  -1.553347 -45.005014  -0.002174  -0.001081 -30.465706   1.176588  -0.565057  54.065251   0.012479   0.012992  -6.835961   7.235164   2.918878 -14.180819  -0.002100   0.001311
 -2.231414   0.997980   5.420771  -2.596068  -0.371443   4.994662  14.565053   4.310091  -3.145243   4.082572   0.131619   2.015153  -1.365467  -1.126291   2.802240   3.400333   2.372015   8.479102   1.481240   7.303336  39.956156   0.012488  55.039868  -0.039519   0.964394   3.005023 -11.417209  10.190890  -1.073003  -6.886113  16.773469  -5.865684 -44.924733  -0.012364 -40.379695   0.000662   3.067165  -4.334009   6.446557  -4.952537   2.632563  -1.202927  16.175084  -0.000798   0.011890  36.535508  -3.213950  -1.607575 -45.004011  -0.001737  -0.000870 -32.190063   1.254497  -0.666026  52.842477   0.013689   0.014861  -6.551073   7.266859   2.936842 -14.169701  -0.001669   0.001032
